<?xml version='1.0' encoding='utf-8'?>
<!-- Created with Inkscape (http://www.inkscape.org/) -->
<svg xmlns:dc="http://purl.org/dc/elements/1.1/" xmlns:cc="http://creativecommons.org/ns#" xmlns:rdf="http://www.w3.org/1999/02/22-rdf-syntax-ns#" xmlns:svg="http://www.w3.org/2000/svg" xmlns="http://www.w3.org/2000/svg" xmlns:xlink="http://www.w3.org/1999/xlink" xmlns:sodipodi="http://sodipodi.sourceforge.net/DTD/sodipodi-0.dtd" xmlns:inkscape="http://www.inkscape.org/namespaces/inkscape" width="744.09448819" height="1052.3622047" id="svg3271" sodipodi:version="0.32" inkscape:version="0.45+devel" sodipodi:docname="gray-cubes.svg" inkscape:output_extension="org.inkscape.output.svg.inkscape">
  <defs id="defs3273">
    <linearGradient inkscape:collect="always" id="linearGradient3569">
      <stop style="stop-color: ${color0}; stop-opacity: 0.75; " offset="0" id="stop3571"/>
      <stop style="stop-color: ${color0}; stop-opacity: 0; " offset="1" id="stop3573"/>
    </linearGradient>
    <inkscape:perspective sodipodi:type="inkscape:persp3d" inkscape:vp_x="0 : 526.18109 : 1" inkscape:vp_y="6.1230318e-14 : 1000 : 0" inkscape:vp_z="744.09448 : 526.18109 : 1" inkscape:persp3d-origin="372.04724 : 350.78739 : 1" id="perspective3279"/>
    <radialGradient inkscape:collect="always" xlink:href="#linearGradient3569" id="radialGradient3575" cx="291.96326" cy="480.53772" fx="291.96326" fy="480.53772" r="303.23306" gradientUnits="userSpaceOnUse" gradientTransform="matrix(7.4669499e-3,0.9932683,-0.9999717,7.5182383e-3,771.133,190.5926)"/>
    <filter inkscape:collect="always" id="filter4225">
      <feGaussianBlur inkscape:collect="always" stdDeviation="7.0779635" id="feGaussianBlur4227"/>
    </filter>
  </defs>
  <sodipodi:namedview id="base" pagecolor="${color1}" bordercolor="${color2}" borderopacity="1.0" gridtolerance="10000" guidetolerance="10" objecttolerance="10" inkscape:pageopacity="0.0" inkscape:pageshadow="2" inkscape:zoom="0.72408531" inkscape:cx="372.04724" inkscape:cy="526.18109" inkscape:document-units="px" inkscape:current-layer="layer1" showgrid="false" inkscape:window-width="1280" inkscape:window-height="947" inkscape:window-x="0" inkscape:window-y="27"/>
  <metadata id="metadata3276">
    <rdf:RDF>
      <cc:Work rdf:about="">
        <dc:format>image/svg+xml</dc:format>
        <dc:type rdf:resource="http://purl.org/dc/dcmitype/StillImage"/>
      </cc:Work>
    </rdf:RDF>
  </metadata>
  <g inkscape:label="Layer 1" inkscape:groupmode="layer" id="layer1">
    <rect style="opacity: 1; stroke-linejoin: round; enable-background: accumulate; marker-end: none; stroke-opacity: 1; fill-rule: nonzero; marker-start: none; fill-opacity: 1; stroke-dashoffset: 0; visibility: visible; display: inline; stroke: none; stroke-linecap: round; stroke-miterlimit: 4; marker: none; stroke-dasharray: none; overflow: visible; stroke-width: 6.52038288; marker-mid: none; fill: ${color3}; " id="rect3565" width="644.37964" height="738.15375" x="44.335163" y="84.456963" rx="14.89975" ry="14.89975"/>
    <path sodipodi:type="arc" style="opacity: 0.9; stroke-linejoin: round; enable-background: accumulate; marker-end: none; stroke-opacity: 1; fill-rule: nonzero; marker-start: none; fill-opacity: 1; stroke-dashoffset: 0; visibility: visible; display: inline; stroke: none; stroke-linecap: round; stroke-miterlimit: 4; marker: none; stroke-dasharray: none; overflow: visible; stroke-width: 6; marker-mid: none; fill: url(#radialGradient3575); " id="path3567" sodipodi:cx="292.78894" sodipodi:cy="492.67496" sodipodi:rx="303.23306" sodipodi:ry="303.23306" d="M 596.022,492.67496 A 303.23306,303.23306 0 1 1 -10.444122,492.67496 A 303.23306,303.23306 0 1 1 596.022,492.67496 z" transform="matrix(1,0,0,1.0989338,69.180823,-83.12889)"/>
    <path style="stroke-linejoin: round; stroke-opacity: 1; fill-rule: evenodd; filter: url(#filter4225); stroke: ${color4}; stroke-linecap: butt; stroke-width: 2.5px; fill: ${color4}; " d="M 338.07524,183.73302 C 320.79098,188.35282 302.29465,189.58255 285.79399,196.38927 C 281.52588,210.33026 285.49098,225.05144 284.04399,239.32677 C 284.04399,252.55594 284.04399,265.7851 284.04399,279.01427 C 261.76658,281.06065 239.11103,281.2535 217.07524,284.57677 C 210.42511,294.03092 215.72945,306.08402 213.98149,316.70177 C 213.98149,330.80594 213.98149,344.9101 213.98149,359.01427 C 188.38305,364.48658 162.19561,368.25054 136.98149,374.85802 C 130.95788,386.75439 135.97468,400.3248 134.46479,412.98267 C 134.92144,434.45499 132.37338,456.30004 136.37029,477.51351 C 143.59736,500.01257 148.59817,523.26238 158.10649,544.95177 C 165.22491,546.57501 171.84484,540.4246 178.51274,538.63927 C 204.73993,527.5319 230.32861,514.99363 256.41899,503.57677 C 292.26749,551.25722 326.56875,600.18926 362.76274,647.54552 C 371.85422,650.5509 376.97861,639.95564 383.29301,635.72672 C 409.53951,612.52152 435.78209,589.31167 461.91899,565.98302 C 486.45377,585.21469 510.1943,605.71927 535.26274,624.10802 C 545.34257,622.82902 547.61682,611.15407 554.06536,605.05397 C 572.03974,580.14239 591.72647,556.53852 608.26274,530.70177 C 608.05435,494.49428 608.67948,458.11343 607.95024,422.01427 C 597.13135,411.78468 581.15687,411.94707 568.22206,405.84908 C 551.9063,400.00426 534.52412,395.55635 518.88774,388.79552 C 518.12289,378.05286 521.66832,366.0408 516.38774,356.20177 C 483.78527,345.93721 450.19619,339.02151 417.32524,329.85802 C 416.16758,313.97681 417.2566,297.78866 416.82524,281.79552 C 416.64189,253.17289 417.51536,224.36863 416.23149,195.85802 C 407.18082,188.15661 394.3749,191.91005 383.68829,188.89325 C 368.48738,187.16803 353.3312,184.84142 338.07524,183.73302 z" id="path3579"/>
    <g id="g4271" transform="translate(49.32524,-46.235734)">
      <path d="M 239.72713,466.8414 L 289.8886,507.06729 L 362.53324,474.29633 L 306.9072,444.55761 L 239.72713,466.8414 z" style="stroke-linejoin: round; stroke-opacity: 1; fill-rule: evenodd; stroke: none; stroke-linecap: butt; stroke-width: 2.5px; fill: none; " id="path3381"/>
      <path d="M 239.72713,245.55882 L 239.72713,466.8414 L 306.9072,444.55761 L 306.9072,251.51704 L 239.72713,245.55882 z" style="stroke-linejoin: round; stroke-opacity: 1; fill-rule: evenodd; stroke: none; stroke-linecap: butt; stroke-width: 2.5px; fill: none; " id="path3383"/>
      <path d="M 306.9072,251.51704 L 362.53324,243.56552 L 362.53324,474.29633 L 306.9072,444.55761 L 306.9072,251.51704 z" style="stroke-linejoin: round; stroke-opacity: 1; fill-rule: evenodd; stroke: none; stroke-linecap: butt; stroke-width: 2.5px; fill: none; " id="path3385"/>
      <path d="M 239.72713,245.55882 L 289.8886,234.80324 L 362.53324,243.56552 L 306.9072,251.51704 L 239.72713,245.55882 z" style="stroke-linejoin: round; stroke-opacity: 1; fill-rule: evenodd; stroke: none; stroke-linecap: butt; stroke-width: 2.5px; fill: none; " id="path3387"/>
      <path d="M 289.8886,234.80324 L 289.8886,507.06729 L 362.53324,474.29633 L 362.53324,243.56552 L 289.8886,234.80324 z" style="stroke-linejoin: round; stroke-opacity: 1; fill-rule: evenodd; stroke: none; stroke-linecap: butt; stroke-width: 2.5px; fill: ${color0}; " id="path3389"/>
      <path d="M 239.72713,245.55882 L 289.8886,234.80324 L 289.8886,507.06729 L 239.72713,466.8414 L 239.72713,245.55882 z" style="stroke-linejoin: round; stroke-opacity: 1; fill-rule: evenodd; stroke: none; stroke-linecap: butt; stroke-width: 2.5px; fill: ${color5}; " id="path3391"/>
      <path d="M 289.90149,507.8389 L 390.15345,588.51864 L 464.71094,529.76112 L 362.54713,474.94889 L 289.90149,507.8389 z" style="stroke-linejoin: round; stroke-opacity: 1; fill-rule: evenodd; stroke: none; stroke-linecap: butt; stroke-width: 2.5px; fill: none; " id="path3395"/>
      <path d="M 289.90149,395.69521 L 289.90149,507.8389 L 362.54713,474.94889 L 362.54713,379.91315 L 289.90149,395.69521 z" style="stroke-linejoin: round; stroke-opacity: 1; fill-rule: evenodd; stroke: none; stroke-linecap: butt; stroke-width: 2.5px; fill: none; " id="path3397"/>
      <path d="M 362.54713,379.91315 L 464.71094,406.21444 L 464.71094,529.76112 L 362.54713,474.94889 L 362.54713,379.91315 z" style="stroke-linejoin: round; stroke-opacity: 1; fill-rule: evenodd; stroke: none; stroke-linecap: butt; stroke-width: 2.5px; fill: none; " id="path3399"/>
      <path d="M 289.90149,395.69521 L 390.15345,434.40885 L 464.71094,406.21444 L 362.54713,379.91315 L 289.90149,395.69521 z" style="stroke-linejoin: round; stroke-opacity: 1; fill-rule: evenodd; stroke: none; stroke-linecap: butt; stroke-width: 2.5px; fill: ${color6}; " id="path3401"/>
      <path d="M 390.15345,434.40885 L 390.15345,588.51864 L 464.71094,529.76112 L 464.71094,406.21444 L 390.15345,434.40885 z" style="stroke-linejoin: round; stroke-opacity: 1; fill-rule: evenodd; stroke: none; stroke-linecap: butt; stroke-width: 2.5px; fill: ${color0}; " id="path3403"/>
      <path d="M 289.90149,395.69521 L 390.15345,434.40885 L 390.15345,588.51864 L 289.90149,507.8389 L 289.90149,395.69521 z" style="stroke-linejoin: round; stroke-opacity: 1; fill-rule: evenodd; stroke: none; stroke-linecap: butt; stroke-width: 2.5px; fill: ${color5}; " id="path3405"/>
      <path d="M 390.97733,588.44035 L 487.57765,665.98728 L 553.94799,576.92547 L 465.50484,529.59302 L 390.97733,588.44035 z" style="stroke-linejoin: round; stroke-opacity: 1; fill-rule: evenodd; stroke: none; stroke-linecap: butt; stroke-width: 2.5px; fill: none; " id="path3409"/>
      <path d="M 390.97733,476.10283 L 390.97733,588.44035 L 465.50484,529.59302 L 465.50484,439.57427 L 390.97733,476.10283 z" style="stroke-linejoin: round; stroke-opacity: 1; fill-rule: evenodd; stroke: none; stroke-linecap: butt; stroke-width: 2.5px; fill: none; " id="path3411"/>
      <path d="M 465.50484,439.57427 L 553.94799,468.95515 L 553.94799,576.92547 L 465.50484,529.59302 L 465.50484,439.57427 z" style="stroke-linejoin: round; stroke-opacity: 1; fill-rule: evenodd; stroke: none; stroke-linecap: butt; stroke-width: 2.5px; fill: none; " id="path3413"/>
      <path d="M 390.97733,476.10283 L 487.57765,524.23888 L 553.94799,468.95515 L 465.50484,439.57427 L 390.97733,476.10283 z" style="stroke-linejoin: round; stroke-opacity: 1; fill-rule: evenodd; stroke: none; stroke-linecap: butt; stroke-width: 2.5px; fill: ${color6}; " id="path3415"/>
      <path d="M 487.57765,524.23888 L 487.57765,665.98728 L 553.94799,576.92547 L 553.94799,468.95515 L 487.57765,524.23888 z" style="stroke-linejoin: round; stroke-opacity: 1; fill-rule: evenodd; stroke: none; stroke-linecap: butt; stroke-width: 2.5px; fill: ${color0}; " id="path3417"/>
      <path d="M 390.97733,476.10283 L 487.57765,524.23888 L 487.57765,665.98728 L 390.97733,588.44035 L 390.97733,476.10283 z" style="stroke-linejoin: round; stroke-opacity: 1; fill-rule: evenodd; stroke: none; stroke-linecap: butt; stroke-width: 2.5px; fill: ${color5}; " id="path3419"/>
      <path d="M 169.66875,490.07993 L 209.43692,543.36011 L 290.23478,506.91113 L 240.03816,466.73823 L 169.66875,490.07993 z" style="stroke-linejoin: round; stroke-opacity: 1; fill-rule: evenodd; stroke: none; stroke-linecap: butt; stroke-width: 2.5px; fill: none; " id="path3423"/>
      <path d="M 169.66875,334.94936 L 169.66875,490.07993 L 240.03816,466.73823 L 240.03816,329.91066 L 169.66875,334.94936 z" style="stroke-linejoin: round; stroke-opacity: 1; fill-rule: evenodd; stroke: none; stroke-linecap: butt; stroke-width: 2.5px; fill: none; " id="path3425"/>
      <path d="M 240.03816,329.91066 L 290.23478,338.58266 L 290.23478,506.91113 L 240.03816,466.73823 L 240.03816,329.91066 z" style="stroke-linejoin: round; stroke-opacity: 1; fill-rule: evenodd; stroke: none; stroke-linecap: butt; stroke-width: 2.5px; fill: none; " id="path3427"/>
      <path d="M 169.66875,334.94936 L 209.43692,346.4508 L 290.23478,338.58266 L 240.03816,329.91066 L 169.66875,334.94936 z" style="stroke-linejoin: round; stroke-opacity: 1; fill-rule: evenodd; stroke: none; stroke-linecap: butt; stroke-width: 2.5px; fill: ${color6}; " id="path3429"/>
      <path d="M 209.43692,346.4508 L 209.43692,543.36011 L 290.23478,506.91113 L 290.23478,338.58266 L 209.43692,346.4508 z" style="stroke-linejoin: round; stroke-opacity: 1; fill-rule: evenodd; stroke: none; stroke-linecap: butt; stroke-width: 2.5px; fill: ${color0}; " id="path3431"/>
      <path d="M 169.66875,334.94936 L 209.43692,346.4508 L 209.43692,543.36011 L 169.66875,490.07993 L 169.66875,334.94936 z" style="stroke-linejoin: round; stroke-opacity: 1; fill-rule: evenodd; stroke: none; stroke-linecap: butt; stroke-width: 2.5px; fill: ${color5}; " id="path3433"/>
      <path d="M 90.010749,516.50268 L 111.54673,587.51967 L 209.65348,543.26242 L 169.85156,490.01929 L 90.010749,516.50268 z" style="stroke-linejoin: round; stroke-opacity: 1; fill-rule: evenodd; stroke: none; stroke-linecap: butt; stroke-width: 2.5px; fill: none; " id="path3437"/>
      <path d="M 90.010749,424.94662 L 90.010749,516.50268 L 169.85156,490.01929 L 169.85156,409.27531 L 90.010749,424.94662 z" style="stroke-linejoin: round; stroke-opacity: 1; fill-rule: evenodd; stroke: none; stroke-linecap: butt; stroke-width: 2.5px; fill: none; " id="path3439"/>
      <path d="M 169.85156,409.27531 L 209.65348,440.78146 L 209.65348,543.26242 L 169.85156,490.01929 L 169.85156,409.27531 z" style="stroke-linejoin: round; stroke-opacity: 1; fill-rule: evenodd; stroke: none; stroke-linecap: butt; stroke-width: 2.5px; fill: none; " id="path3441"/>
      <path d="M 90.010749,424.94662 L 111.54673,466.97029 L 209.65348,440.78146 L 169.85156,409.27531 L 90.010749,424.94662 z" style="stroke-linejoin: round; stroke-opacity: 1; fill-rule: evenodd; stroke: none; stroke-linecap: butt; stroke-width: 2.5px; fill: ${color7}; " id="path3443"/>
      <path d="M 111.54673,466.97029 L 111.54673,587.51967 L 209.65348,543.26242 L 209.65348,440.78146 L 111.54673,466.97029 z" style="stroke-linejoin: round; stroke-opacity: 1; fill-rule: evenodd; stroke: none; stroke-linecap: butt; stroke-width: 2.5px; fill: ${color0}; " id="path3445"/>
      <path d="M 90.010749,424.94662 L 111.54673,466.97029 L 111.54673,587.51967 L 90.010749,516.50268 L 90.010749,424.94662 z" style="stroke-linejoin: round; stroke-opacity: 1; fill-rule: evenodd; stroke: none; stroke-linecap: butt; stroke-width: 2.5px; fill: ${color5}; " id="path3447"/>
      <path d="M 208.71225,543.54544 L 254.85426,605.65083 L 343.90871,551.05776 L 289.34774,507.19019 L 208.71225,543.54544 z" style="stroke-linejoin: round; stroke-opacity: 1; fill-rule: evenodd; stroke: none; stroke-linecap: butt; stroke-width: 2.5px; fill: none; " id="path3451"/>
      <path d="M 208.71225,391.34938 L 208.71225,543.54544 L 289.34774,507.19019 L 289.34774,377.01191 L 208.71225,391.34938 z" style="stroke-linejoin: round; stroke-opacity: 1; fill-rule: evenodd; stroke: none; stroke-linecap: butt; stroke-width: 2.5px; fill: none; " id="path3453"/>
      <path d="M 289.34774,377.01191 L 343.90871,394.31202 L 343.90871,551.05776 L 289.34774,507.19019 L 289.34774,377.01191 z" style="stroke-linejoin: round; stroke-opacity: 1; fill-rule: evenodd; stroke: none; stroke-linecap: butt; stroke-width: 2.5px; fill: none; " id="path3455"/>
      <path d="M 208.71225,391.34938 L 254.85426,415.84196 L 343.90871,394.31202 L 289.34774,377.01191 L 208.71225,391.34938 z" style="stroke-linejoin: round; stroke-opacity: 1; fill-rule: evenodd; stroke: none; stroke-linecap: butt; stroke-width: 2.5px; fill: ${color6}; " id="path3457"/>
      <path d="M 254.85426,415.84196 L 254.85426,605.65083 L 343.90871,551.05776 L 343.90871,394.31202 L 254.85426,415.84196 z" style="stroke-linejoin: round; stroke-opacity: 1; fill-rule: evenodd; stroke: none; stroke-linecap: butt; stroke-width: 2.5px; fill: ${color0}; " id="path3459"/>
      <path d="M 208.71225,391.34938 L 254.85426,415.84196 L 254.85426,605.65083 L 208.71225,543.54544 L 208.71225,391.34938 z" style="stroke-linejoin: round; stroke-opacity: 1; fill-rule: evenodd; stroke: none; stroke-linecap: butt; stroke-width: 2.5px; fill: ${color5}; " id="path3461"/>
      <path d="M 254.2872,605.81461 L 316.97553,690.4409 L 411.67948,606.47513 L 343.26106,551.30291 L 254.2872,605.81461 z" style="stroke-linejoin: round; stroke-opacity: 1; fill-rule: evenodd; stroke: none; stroke-linecap: butt; stroke-width: 2.5px; fill: none; " id="path3465"/>
      <path d="M 254.2872,533.99635 L 254.2872,605.81461 L 343.26106,551.30291 L 343.26106,491.96962 L 254.2872,533.99635 z" style="stroke-linejoin: round; stroke-opacity: 1; fill-rule: evenodd; stroke: none; stroke-linecap: butt; stroke-width: 2.5px; fill: none; " id="path3467"/>
      <path d="M 343.26106,491.96962 L 411.67948,534.50559 L 411.67948,606.47513 L 343.26106,551.30291 L 343.26106,491.96962 z" style="stroke-linejoin: round; stroke-opacity: 1; fill-rule: evenodd; stroke: none; stroke-linecap: butt; stroke-width: 2.5px; fill: none; " id="path3469"/>
      <path d="M 254.2872,533.99635 L 316.97553,599.24043 L 411.67948,534.50559 L 343.26106,491.96962 L 254.2872,533.99635 z" style="stroke-linejoin: round; stroke-opacity: 1; fill-rule: evenodd; stroke: none; stroke-linecap: butt; stroke-width: 2.5px; fill: ${color6}; " id="path3471"/>
      <path d="M 316.97553,599.24043 L 316.97553,690.4409 L 411.67948,606.47513 L 411.67948,534.50559 L 316.97553,599.24043 z" style="stroke-linejoin: round; stroke-opacity: 1; fill-rule: evenodd; stroke: none; stroke-linecap: butt; stroke-width: 2.5px; fill: ${color0}; " id="path3473"/>
      <path d="M 254.2872,533.99635 L 316.97553,599.24043 L 316.97553,690.4409 L 254.2872,605.81461 L 254.2872,533.99635 z" style="stroke-linejoin: round; stroke-opacity: 1; fill-rule: evenodd; stroke: none; stroke-linecap: butt; stroke-width: 2.5px; fill: ${color5}; " id="path3475"/>
    </g>
  </g>
</svg>

