<?xml version="1.0" encoding="UTF-8" standalone="no"?>
<!-- Created with Inkscape (http://www.inkscape.org/) -->

<svg
   xmlns:dc="http://purl.org/dc/elements/1.1/"
   xmlns:cc="http://creativecommons.org/ns#"
   xmlns:rdf="http://www.w3.org/1999/02/22-rdf-syntax-ns#"
   xmlns:svg="http://www.w3.org/2000/svg"
   xmlns="http://www.w3.org/2000/svg"
   xmlns:sodipodi="http://sodipodi.sourceforge.net/DTD/sodipodi-0.dtd"
   xmlns:inkscape="http://www.inkscape.org/namespaces/inkscape"
   width="400"
   height="400"
   id="svg4371"
   version="1.1"
   inkscape:version="0.48.1 r9760"
   sodipodi:docname="Новый документ 8">
  <defs
     id="defs4373" />
  <sodipodi:namedview
     id="base"
     pagecolor="#ffffff"
     bordercolor="#666666"
     borderopacity="1.0"
     inkscape:pageopacity="0.0"
     inkscape:pageshadow="2"
     inkscape:zoom="1.979899"
     inkscape:cx="137.64567"
     inkscape:cy="183.66381"
     inkscape:document-units="px"
     inkscape:current-layer="layer1"
     showgrid="false"
     inkscape:window-width="1916"
     inkscape:window-height="1196"
     inkscape:window-x="0"
     inkscape:window-y="0"
     inkscape:window-maximized="0" />
  <metadata
     id="metadata4376">
    <rdf:RDF>
      <cc:Work
         rdf:about="">
        <dc:format>image/svg+xml</dc:format>
        <dc:type
           rdf:resource="http://purl.org/dc/dcmitype/StillImage" />
        <dc:title></dc:title>
      </cc:Work>
    </rdf:RDF>
  </metadata>
  <g
     inkscape:label="Layer 1"
     inkscape:groupmode="layer"
     id="layer1"
     transform="translate(0,-652.36218)">
    <path
       sodipodi:type="arc"
       style="fill:#e9b96e;fill-opacity:1;stroke:none"
       id="path4379"
       sodipodi:cx="192.43407"
       sodipodi:cy="186.85782"
       sodipodi:rx="159.09903"
       sodipodi:ry="159.09903"
       d="m 351.5331,186.85782 a 159.09903,159.09903 0 1 1 -318.198063,0 159.09903,159.09903 0 1 1 318.198063,0 z"
       transform="matrix(1.2570787,0,0,1.2570787,-41.904765,617.46719)" />
    <path
       sodipodi:type="arc"
       style="fill:#f7d5a0;fill-opacity:1;stroke:none"
       id="path4381"
       sodipodi:cx="121.97592"
       sodipodi:cy="118.41998"
       sodipodi:rx="39.14341"
       sodipodi:ry="39.14341"
       d="m 161.11933,118.41998 a 39.14341,39.14341 0 1 1 -78.286818,0 39.14341,39.14341 0 1 1 78.286818,0 z"
       transform="matrix(1.5935485,0,0,1.5935485,-64.075072,732.34457)" />
    <path
       transform="matrix(1.5935485,0,0,1.5935485,-64.075072,593.44859)"
       d="m 161.11933,118.41998 a 39.14341,39.14341 0 1 1 -78.286818,0 39.14341,39.14341 0 1 1 78.286818,0 z"
       sodipodi:ry="39.14341"
       sodipodi:rx="39.14341"
       sodipodi:cy="118.41998"
       sodipodi:cx="121.97592"
       id="path4383"
       style="fill:#eeb83b;fill-opacity:1;stroke:none"
       sodipodi:type="arc" />
    <path
       sodipodi:type="arc"
       style="fill:#c17d11;fill-opacity:1;stroke:none"
       id="path4385"
       sodipodi:cx="121.97592"
       sodipodi:cy="118.41998"
       sodipodi:rx="39.14341"
       sodipodi:ry="39.14341"
       d="m 161.11933,118.41998 a 39.14341,39.14341 0 1 1 -78.286818,0 39.14341,39.14341 0 1 1 78.286818,0 z"
       transform="matrix(1.5935485,0,0,1.5935485,75.325978,593.44859)" />
    <path
       transform="matrix(1.5935485,0,0,1.5935485,75.325978,733.85979)"
       d="m 161.11933,118.41998 a 39.14341,39.14341 0 1 1 -78.286818,0 39.14341,39.14341 0 1 1 78.286818,0 z"
       sodipodi:ry="39.14341"
       sodipodi:rx="39.14341"
       sodipodi:cy="118.41998"
       sodipodi:cx="121.97592"
       id="path4387"
       style="fill:#612709;fill-opacity:1;stroke:none"
       sodipodi:type="arc" />
    <path
       sodipodi:type="arc"
       style="fill:#f7d7a5;fill-opacity:1;stroke:none"
       id="path4389"
       sodipodi:cx="76.266518"
       sodipodi:cy="138.87556"
       sodipodi:rx="14.142136"
       sodipodi:ry="14.142136"
       d="m 90.408653,138.87556 a 14.142136,14.142136 0 1 1 -28.284271,0 14.142136,14.142136 0 1 1 28.284271,0 z"
       transform="translate(-6.0609153,644.28096)" />
    <path
       transform="translate(2.5253814,615.99669)"
       d="m 90.408653,138.87556 a 14.142136,14.142136 0 1 1 -28.284271,0 14.142136,14.142136 0 1 1 28.284271,0 z"
       sodipodi:ry="14.142136"
       sodipodi:rx="14.142136"
       sodipodi:cy="138.87556"
       sodipodi:cx="76.266518"
       id="path4391"
       style="fill:#f5ca88;fill-opacity:1;stroke:none"
       sodipodi:type="arc" />
    <path
       sodipodi:type="arc"
       style="fill:#ce8411;fill-opacity:1;stroke:none"
       id="path4393"
       sodipodi:cx="76.266518"
       sodipodi:cy="138.87556"
       sodipodi:rx="14.142136"
       sodipodi:ry="14.142136"
       d="m 90.408653,138.87556 a 14.142136,14.142136 0 1 1 -28.284271,0 14.142136,14.142136 0 1 1 28.284271,0 z"
       transform="translate(21.213204,592.25811)" />
    <path
       transform="translate(47.47717,582.66165)"
       d="m 90.408653,138.87556 a 14.142136,14.142136 0 1 1 -28.284271,0 14.142136,14.142136 0 1 1 28.284271,0 z"
       sodipodi:ry="14.142136"
       sodipodi:rx="14.142136"
       sodipodi:cy="138.87556"
       sodipodi:cx="76.266518"
       id="path4395"
       style="fill:#8d5b0c;fill-opacity:1;stroke:none"
       sodipodi:type="arc" />
  </g>
</svg>
