<?xml version="1.0" encoding="UTF-8" standalone="no"?>
<!-- Created with Inkscape (http://www.inkscape.org/) -->

<svg
   xmlns:dc="http://purl.org/dc/elements/1.1/"
   xmlns:cc="http://creativecommons.org/ns#"
   xmlns:rdf="http://www.w3.org/1999/02/22-rdf-syntax-ns#"
   xmlns:svg="http://www.w3.org/2000/svg"
   xmlns="http://www.w3.org/2000/svg"
   xmlns:sodipodi="http://sodipodi.sourceforge.net/DTD/sodipodi-0.dtd"
   xmlns:inkscape="http://www.inkscape.org/namespaces/inkscape"
   width="24"
   height="24"
   id="svg2"
   version="1.1"
   inkscape:version="0.48.1 r9760"
   sodipodi:docname="harmony.svg">
  <defs
     id="defs4" />
  <sodipodi:namedview
     id="base"
     pagecolor="#ffffff"
     bordercolor="#666666"
     borderopacity="1.0"
     inkscape:pageopacity="0.0"
     inkscape:pageshadow="2"
     inkscape:zoom="31.678384"
     inkscape:cx="12.984083"
     inkscape:cy="10.66305"
     inkscape:document-units="px"
     inkscape:current-layer="layer1"
     showgrid="true"
     inkscape:window-width="1916"
     inkscape:window-height="1196"
     inkscape:window-x="0"
     inkscape:window-y="0"
     inkscape:window-maximized="0">
    <inkscape:grid
       type="xygrid"
       id="grid2985"
       empspacing="4"
       visible="true"
       enabled="true"
       snapvisiblegridlinesonly="true" />
  </sodipodi:namedview>
  <metadata
     id="metadata7">
    <rdf:RDF>
      <cc:Work
         rdf:about="">
        <dc:format>image/svg+xml</dc:format>
        <dc:type
           rdf:resource="http://purl.org/dc/dcmitype/StillImage" />
      </cc:Work>
    </rdf:RDF>
  </metadata>
  <g
     inkscape:label="Layer 1"
     inkscape:groupmode="layer"
     id="layer1"
     transform="translate(0,-1028.3622)">
    <g
       id="g3089"
       transform="matrix(1.1111111,0,0,1.1111111,-2.4444444,-116.70691)">
      <path
         transform="matrix(1.125,0,0,1.125,-1.5,1027.3622)"
         d="m 12,8 c 0,2.209139 -1.790861,4 -4,4 C 5.790861,12 4,10.209139 4,8 4,5.790861 5.790861,4 8,4 c 2.209139,0 4,1.790861 4,4 z"
         sodipodi:ry="4"
         sodipodi:rx="4"
         sodipodi:cy="8"
         sodipodi:cx="8"
         id="path3054"
         style="fill:#cc0000;stroke:#000000;stroke-opacity:1"
         sodipodi:type="arc" />
      <path
         sodipodi:type="arc"
         style="fill:#edd400;stroke:#000000;stroke-opacity:1"
         id="path3083"
         sodipodi:cx="8"
         sodipodi:cy="8"
         sodipodi:rx="4"
         sodipodi:ry="4"
         d="m 12,8 c 0,2.209139 -1.790861,4 -4,4 C 5.790861,12 4,10.209139 4,8 4,5.790861 5.790861,4 8,4 c 2.209139,0 4,1.790861 4,4 z"
         transform="matrix(1.125,0,0,1.125,9.5,1027.3622)" />
      <path
         sodipodi:type="arc"
         style="fill:#3465a4;stroke:#000000;stroke-opacity:1"
         id="path3087"
         sodipodi:cx="8"
         sodipodi:cy="8"
         sodipodi:rx="4"
         sodipodi:ry="4"
         d="m 12,8 c 0,2.209139 -1.790861,4 -4,4 C 5.790861,12 4,10.209139 4,8 4,5.790861 5.790861,4 8,4 c 2.209139,0 4,1.790861 4,4 z"
         transform="matrix(1.125,0,0,1.125,4,1037.3622)" />
    </g>
  </g>
</svg>
