<?xml version="1.0" encoding="UTF-8" standalone="no"?>
<!-- Created with Inkscape (http://www.inkscape.org/) -->

<svg
   xmlns:dc="http://purl.org/dc/elements/1.1/"
   xmlns:cc="http://creativecommons.org/ns#"
   xmlns:rdf="http://www.w3.org/1999/02/22-rdf-syntax-ns#"
   xmlns:svg="http://www.w3.org/2000/svg"
   xmlns="http://www.w3.org/2000/svg"
   xmlns:xlink="http://www.w3.org/1999/xlink"
   xmlns:sodipodi="http://sodipodi.sourceforge.net/DTD/sodipodi-0.dtd"
   xmlns:inkscape="http://www.inkscape.org/namespaces/inkscape"
   width="400"
   height="400"
   id="svg5789"
   version="1.1"
   inkscape:version="0.48.1 r9760"
   sodipodi:docname="Новый документ 13">
  <defs
     id="defs5791">
    <linearGradient
       id="linearGradient19148">
      <stop
         id="stop19150"
         offset="0"
         style="stop-color:#e7e5de;stop-opacity:1" />
      <stop
         style="stop-color:#e4daa3;stop-opacity:1;"
         offset="0.7928856"
         id="stop19154" />
      <stop
         id="stop19152"
         offset="1"
         style="stop-color:#e2cf68;stop-opacity:1" />
    </linearGradient>
    <linearGradient
       inkscape:collect="always"
       id="linearGradient19138">
      <stop
         style="stop-color:#aca798;stop-opacity:1"
         offset="0"
         id="stop19140" />
      <stop
         style="stop-color:#e2cf68;stop-opacity:1"
         offset="1"
         id="stop19142" />
    </linearGradient>
    <radialGradient
       inkscape:collect="always"
       xlink:href="#linearGradient19138"
       id="radialGradient19144"
       cx="188.39345"
       cy="149.48216"
       fx="188.39345"
       fy="149.48216"
       r="154.55334"
       gradientUnits="userSpaceOnUse" />
    <radialGradient
       inkscape:collect="always"
       xlink:href="#linearGradient19148"
       id="radialGradient19146"
       cx="206.07112"
       cy="846.29108"
       fx="206.07112"
       fy="846.29108"
       r="200"
       gradientUnits="userSpaceOnUse"
       gradientTransform="matrix(0.96233469,0.99573816,-0.94090294,0.90934424,804.03949,-128.47172)" />
  </defs>
  <sodipodi:namedview
     id="base"
     pagecolor="#ffffff"
     bordercolor="#666666"
     borderopacity="1.0"
     inkscape:pageopacity="0.0"
     inkscape:pageshadow="2"
     inkscape:zoom="1.979899"
     inkscape:cx="233.82332"
     inkscape:cy="182.23514"
     inkscape:document-units="px"
     inkscape:current-layer="layer1"
     showgrid="false"
     inkscape:window-width="1916"
     inkscape:window-height="1196"
     inkscape:window-x="0"
     inkscape:window-y="0"
     inkscape:window-maximized="0" />
  <metadata
     id="metadata5794">
    <rdf:RDF>
      <cc:Work
         rdf:about="">
        <dc:format>image/svg+xml</dc:format>
        <dc:type
           rdf:resource="http://purl.org/dc/dcmitype/StillImage" />
        <dc:title></dc:title>
      </cc:Work>
    </rdf:RDF>
  </metadata>
  <g
     inkscape:label="Layer 1"
     inkscape:groupmode="layer"
     id="layer1"
     transform="translate(0,-652.36218)">
    <rect
       style="fill:url(#radialGradient19146);fill-opacity:1;stroke:none"
       id="rect19110"
       width="400"
       height="400"
       x="0"
       y="652.36218" />
    <path
       sodipodi:type="arc"
       style="fill:url(#radialGradient19144);fill-opacity:1;stroke:none;stroke-opacity:1"
       id="path19112"
       sodipodi:cx="188.39345"
       sodipodi:cy="149.48216"
       sodipodi:rx="154.55334"
       sodipodi:ry="154.55334"
       d="m 342.94679,149.48216 a 154.55334,154.55334 0 1 1 -309.106687,0 154.55334,154.55334 0 1 1 309.106687,0 z"
       transform="matrix(1.2058823,0,0,1.2058823,-23.129522,664.01285)" />
    <path
       style="fill-opacity:1;stroke:none"
       d="m 171.65669,828.22508 c 0,2.26838 -1.84082,4.10727 -4.1116,4.10727 -2.27078,0 -4.11161,-1.83889 -4.11161,-4.10727 0,-2.26844 1.84083,-4.10732 4.11161,-4.10732 2.27078,0 4.1116,1.83888 4.1116,4.10732 z"
       id="path5799"
       inkscape:tile-cx="182.08"
       inkscape:tile-cy="223.47584"
       inkscape:tile-w="16.66752"
       inkscape:tile-h="16.66751"
       inkscape:tile-x0="173.74624"
       inkscape:tile-y0="215.14209"
       inkscape:connector-curvature="0" />
    <path
       inkscape:connector-curvature="0"
       inkscape:tile-y0="215.14209"
       inkscape:tile-x0="173.74624"
       id="use18710"
       d="m 195.33619,807.09902 c 0.28248,2.25534 -1.3186,4.31237 -3.57612,4.59453 -2.25752,0.28215 -4.31657,-1.31742 -4.59904,-3.57275 -0.28248,-2.2554 1.3186,-4.31244 3.57611,-4.59459 2.25751,-0.28215 4.31657,1.31742 4.59905,3.57281 z"
       style="opacity:0.99140553;fill:#c4ac5a;fill-opacity:1;stroke:none" />
    <path
       inkscape:connector-curvature="0"
       inkscape:tile-y0="215.14209"
       inkscape:tile-x0="173.74624"
       id="use18712"
       d="m 169.2089,810.34197 c -0.65835,2.29158 -3.13939,3.59098 -5.54158,2.90231 -2.4022,-0.68868 -3.81586,-3.10466 -3.15752,-5.39624 0.65835,-2.29164 3.1394,-3.59104 5.5416,-2.90237 2.40219,0.68868 3.81586,3.10466 3.1575,5.3963 z"
       style="fill:#c5b260;fill-opacity:1;stroke:none" />
    <path
       inkscape:connector-curvature="0"
       inkscape:tile-y0="215.14209"
       inkscape:tile-x0="173.74624"
       id="use18714"
       d="m 150.25067,802.11388 c -1.92236,1.60236 -4.90773,1.19294 -6.66803,-0.91449 -1.7603,-2.10743 -1.62893,-5.1148 0.29343,-6.71717 1.92242,-1.6024 4.90779,-1.19297 6.66809,0.91446 1.7603,2.10743 1.62893,5.11479 -0.29349,6.7172 z"
       style="fill:#c8b56f;fill-opacity:1;stroke:none" />
    <path
       inkscape:connector-curvature="0"
       inkscape:tile-y0="215.14209"
       inkscape:tile-x0="173.74624"
       id="use18716"
       d="m 138.42288,784.77377 c -2.67493,-0.0274 -4.81784,-2.53946 -4.78633,-5.6109 0.0315,-3.07145 2.22552,-5.53913 4.90044,-5.51174 2.675,0.0274 4.81791,2.53947 4.7864,5.61091 -0.0315,3.07143 -2.22552,5.53913 -4.90051,5.51173 z"
       style="fill:#ceb87d;fill-opacity:1;stroke:none" />
    <path
       inkscape:connector-curvature="0"
       inkscape:tile-y0="215.14209"
       inkscape:tile-x0="173.74624"
       id="use18718"
       d="m 153.7465,766.61743 c -1.62599,-2.28825 -0.7058,-5.73042 2.0553,-7.6883 2.76111,-1.95789 6.31754,-1.69006 7.94352,0.59819 1.62603,2.28832 0.70585,5.73049 -2.05526,7.68838 -2.76111,1.95789 -6.31754,1.69006 -7.94356,-0.59827 z"
       style="fill:#cfb986;fill-opacity:1;stroke:none" />
    <path
       inkscape:connector-curvature="0"
       inkscape:tile-y0="215.14209"
       inkscape:tile-x0="173.74624"
       id="use18720"
       d="m 214.89861,764.83835 c 2.21936,-1.91152 5.98059,-1.18779 8.40096,1.6165 2.4204,2.8043 2.58336,6.62721 0.364,8.53873 -2.21941,1.91158 -5.98063,1.18785 -8.40102,-1.61645 -2.42039,-2.80429 -2.58335,-6.6272 -0.36394,-8.53878 z"
       style="fill:#d3bf90;fill-opacity:1;stroke:none" />
    <path
       inkscape:connector-curvature="0"
       inkscape:tile-y0="215.14209"
       inkscape:tile-x0="173.74624"
       id="use18722"
       d="m 215.00997,826.29783 c 2.32551,2.02684 2.02838,6.1686 -0.66367,9.25093 -2.69206,3.08233 -6.75959,3.93796 -9.08511,1.91112 -2.32558,-2.02689 -2.02845,-6.16867 0.66361,-9.25098 2.69205,-3.08233 6.75959,-3.93796 9.08517,-1.91107 z"
       style="opacity:0.99999988;fill:#d6bc9b;fill-opacity:1;stroke:none" />
    <path
       inkscape:connector-curvature="0"
       inkscape:tile-y0="215.14209"
       inkscape:tile-x0="173.74624"
       id="use18724"
       d="m 121.71878,824.68491 c -3.02069,1.36878 -7.01344,-0.92185 -8.91808,-5.11632 -1.90465,-4.19445 -0.99992,-8.70433 2.02077,-10.07312 3.02077,-1.36883 7.01352,0.92183 8.91816,5.11627 1.90465,4.19446 0.99992,8.70434 -2.02085,10.07317 z"
       style="opacity:0.999237;fill:#dbc6a8;fill-opacity:1;stroke:none" />
    <path
       inkscape:connector-curvature="0"
       inkscape:tile-y0="215.14209"
       inkscape:tile-x0="173.74624"
       id="use18726"
       d="m 180.4539,776.14395 c -0.0598,-3.51913 4.05402,-6.44251 9.18847,-6.52954 5.13443,-0.0871 9.34516,2.69522 9.40495,6.21434 0.0598,3.51924 -4.05403,6.44261 -9.18847,6.52965 -5.13444,0.087 -9.34517,-2.69522 -9.40495,-6.21445 z"
       style="opacity:0.99385579;fill:#ddcbb3;fill-opacity:1;stroke:none" />
    <path
       inkscape:connector-curvature="0"
       inkscape:tile-y0="215.14209"
       inkscape:tile-x0="173.74624"
       id="use18728"
       d="m 228.99933,857.15837 c 2.43334,2.72707 1.0178,7.95471 -3.16172,11.67631 -4.17952,3.72158 -9.5403,4.52779 -11.97364,1.80073 -2.43342,-2.72714 -1.01789,-7.95478 3.16164,-11.67637 4.17953,-3.7216 9.5403,-4.5278 11.97372,-1.80067 z"
       style="fill:#e2d1be;fill-opacity:1;stroke:none" />
    <path
       inkscape:connector-curvature="0"
       inkscape:tile-y0="215.14209"
       inkscape:tile-x0="173.74624"
       id="use18730"
       d="m 178.70298,826.37307 c -0.57252,2.4349 -3.00195,3.94765 -5.42628,3.3788 -2.42435,-0.56884 -3.92554,-3.00387 -3.35301,-5.43877 0.57253,-2.43498 3.00196,-3.94772 5.42629,-3.37888 2.42435,0.56884 3.92554,3.00387 3.353,5.43885 z"
       style="opacity:0.99521203;fill:#c0aa42;fill-opacity:1;stroke:none" />
    <path
       inkscape:connector-curvature="0"
       inkscape:tile-y0="215.14209"
       inkscape:tile-x0="173.74624"
       id="use18732"
       d="m 150.76212,829.88434 c -1.66758,2.09251 -4.7858,2.38404 -6.96477,0.65118 -2.17897,-1.73287 -2.59353,-4.83392 -0.92595,-6.92642 1.66762,-2.09255 4.78586,-2.38409 6.96482,-0.65123 2.17897,1.73287 2.59352,4.83393 0.9259,6.92647 z"
       style="opacity:0.99046792;fill:#c3ac4c;fill-opacity:1;stroke:none" />
    <path
       inkscape:connector-curvature="0"
       inkscape:tile-y0="215.14209"
       inkscape:tile-x0="173.74624"
       id="use18734"
       d="m 127.17943,800.64666 c -2.54417,1.20929 -5.67598,-0.0554 -6.99508,-2.82488 -1.31911,-2.76943 -0.32598,-5.9948 2.21821,-7.2041 2.54425,-1.20931 5.67605,0.0554 6.99515,2.82486 1.31911,2.76943 0.32597,5.9948 -2.21828,7.20412 z"
       style="fill:#c6af58;fill-opacity:1;stroke:none" />
    <path
       inkscape:connector-curvature="0"
       inkscape:tile-y0="215.14209"
       inkscape:tile-x0="173.74624"
       id="use18736"
       d="m 157.98494,789.56461 c -2.8144,-0.97888 -4.18917,-4.37401 -3.07061,-7.58325 1.11855,-3.20924 4.30683,-5.01729 7.12123,-4.0384 2.81448,0.97891 4.18924,4.37404 3.07068,7.58329 -1.11856,3.20923 -4.30683,5.01728 -7.1213,4.03836 z"
       style="fill:#c8b164;fill-opacity:1;stroke:none" />
    <path
       inkscape:connector-curvature="0"
       inkscape:tile-y0="215.14209"
       inkscape:tile-x0="173.74624"
       id="use18738"
       d="m 170.98824,748.33523 c -0.52059,-3.10091 2.06755,-6.11898 5.7808,-6.74106 3.71324,-0.62211 7.14541,1.38737 7.66601,4.48828 0.52061,3.10099 -2.06754,6.11907 -5.78078,6.74116 -3.71324,0.62208 -7.14542,-1.38738 -7.66603,-4.48838 z"
       style="opacity:0.99696536;fill:#cdb575;fill-opacity:1;stroke:none" />
    <path
       inkscape:connector-curvature="0"
       inkscape:tile-y0="215.14209"
       inkscape:tile-x0="173.74624"
       id="use18740"
       d="m 213.35499,788.81533 c 2.92163,-1.55334 6.87115,0.15502 8.8215,3.81574 1.95034,3.66071 1.16295,7.88752 -1.75869,9.44085 -2.92172,1.55337 -6.87124,-0.15498 -8.82158,-3.81571 -1.95035,-3.66071 -1.16295,-7.88751 1.75877,-9.44088 z"
       style="opacity:0.99536079;fill:#d0b780;fill-opacity:1;stroke:none" />
    <path
       inkscape:connector-curvature="0"
       inkscape:tile-y0="215.14209"
       inkscape:tile-x0="173.74624"
       id="use18742"
       d="m 195.70891,834.07724 c 1.18008,3.30946 -1.39311,7.24834 -5.74741,8.79775 -4.35429,1.5494 -8.84078,0.12258 -10.02086,-3.18687 -1.18011,-3.30957 1.39309,-7.24844 5.74738,-8.79785 4.3543,-1.5494 8.84077,-0.12259 10.02089,3.18697 z"
       style="opacity:0.99964905;fill:#d4b98d;fill-opacity:1;stroke:none" />
    <path
       inkscape:connector-curvature="0"
       inkscape:tile-y0="215.14209"
       inkscape:tile-x0="173.74624"
       id="use18744"
       d="m 104.75313,801.95222 c -3.63189,0.65047 -7.303948,-2.87764 -8.201788,-7.88026 -0.89784,-5.00263 1.31855,-9.58534 4.950438,-10.23581 3.63199,-0.65049 7.30406,2.87762 8.2019,7.88024 0.89783,5.00263 -1.31855,9.58534 -4.95055,10.23583 z"
       style="fill:#d5ba93;fill-opacity:1;stroke:none" />
    <path
       inkscape:connector-curvature="0"
       inkscape:tile-y0="215.14209"
       inkscape:tile-x0="173.74624"
       id="use18746"
       d="m 212.06032,742.19606 c 1.30109,-3.63017 6.61888,-5.04826 11.87767,-3.1674 5.25877,1.88087 8.4671,6.34843 7.16601,9.9786 -1.30112,3.63027 -6.61893,5.04837 -11.87771,3.1675 -5.25877,-1.88087 -8.4671,-6.34842 -7.16597,-9.9787 z"
       style="opacity:0.99240076;fill:#d9c4a2;fill-opacity:1;stroke:none" />
    <path
       inkscape:connector-curvature="0"
       inkscape:tile-y0="215.14209"
       inkscape:tile-x0="173.74624"
       id="use18748"
       d="m 218.43244,886.16663 c 2.09068,3.54112 -0.57249,8.97937 -5.94839,12.14668 -5.37589,3.16732 -11.42873,2.86427 -13.51942,-0.67686 -2.09075,-3.54122 0.57243,-8.97946 5.94833,-12.14678 5.3759,-3.16731 11.42874,-2.86427 13.51948,0.67696 z"
       style="fill:#dcc9aa;fill-opacity:1;stroke:none" />
    <path
       inkscape:connector-curvature="0"
       inkscape:tile-y0="215.14209"
       inkscape:tile-x0="173.74624"
       id="use18750"
       d="m 130.95189,832.00104 c -1.87726,2.07473 -5.06038,2.25659 -7.1097,0.40619 -2.04932,-1.85041 -2.18879,-5.03234 -0.31153,-7.10707 1.87732,-2.07479 5.06043,-2.25664 7.10975,-0.40625 2.04932,1.85041 2.18879,5.03234 0.31148,7.10713 z"
       style="fill:#b19836;fill-opacity:1;stroke:none" />
    <path
       inkscape:connector-curvature="0"
       inkscape:tile-y0="215.14209"
       inkscape:tile-x0="173.74624"
       id="use18752"
       d="m 135.78681,815.10145 c -2.53457,1.48733 -5.8363,0.57239 -7.37461,-2.04358 -1.53831,-2.61597 -0.73069,-5.94235 1.8039,-7.42969 2.53464,-1.48738 5.83637,-0.57244 7.37467,2.04353 1.53833,2.61597 0.73069,5.94235 -1.80396,7.42974 z"
       style="opacity:0.99621995;fill:#bea93b;fill-opacity:1;stroke:none" />
    <path
       inkscape:connector-curvature="0"
       inkscape:tile-y0="215.14209"
       inkscape:tile-x0="173.74624"
       id="use18754"
       d="m 114.67777,786.26221 c -3.13308,-0.0615 -5.61903,-2.85409 -5.55253,-6.23756 0.0665,-3.38346 2.66026,-6.07648 5.79333,-6.01504 3.13316,0.0615 5.61911,2.85409 5.55261,6.23755 -0.0665,3.38348 -2.66025,6.07649 -5.79341,6.01505 z"
       style="fill:#c2a141;fill-opacity:1;stroke:none" />
    <path
       inkscape:connector-curvature="0"
       inkscape:tile-y0="215.14209"
       inkscape:tile-x0="173.74624"
       id="use18756"
       d="m 148.50639,744.9417 c -1.90531,-2.65744 -1.0057,-6.56044 2.00933,-8.71762 3.01503,-2.1572 7.00373,-1.75166 8.90904,0.90577 1.90536,2.65751 1.00577,6.56051 -2.00926,8.7177 -3.01504,2.15718 -7.00375,1.75165 -8.90911,-0.90585 z"
       style="fill:#c4ae4e;fill-opacity:1;stroke:none" />
    <path
       inkscape:connector-curvature="0"
       inkscape:tile-y0="215.14209"
       inkscape:tile-x0="173.74624"
       id="use18758"
       d="m 189.46943,740.85779 c 0.92006,-3.32383 4.86921,-5.13347 8.8207,-4.04197 3.95149,1.09151 6.40894,4.67085 5.48889,7.99468 -0.92009,3.32392 -4.86922,5.13356 -8.82072,4.04206 -3.9515,-1.09152 -6.40894,-4.67085 -5.48887,-7.99477 z"
       style="fill:#cab05e;fill-opacity:1;stroke:none" />
    <path
       inkscape:connector-curvature="0"
       inkscape:tile-y0="215.14209"
       inkscape:tile-x0="173.74624"
       id="use18760"
       d="m 233.81869,810.37711 c 3.66293,0.68923 5.93752,4.93277 5.08044,9.47824 -0.85709,4.54546 -4.52128,7.67153 -8.18423,6.98229 -3.66303,-0.68926 -5.93763,-4.93281 -5.08055,-9.47826 0.8571,-4.54546 4.52129,-7.67153 8.18434,-6.98227 z"
       style="fill:#caab66;fill-opacity:1;stroke:none" />
    <path
       inkscape:connector-curvature="0"
       inkscape:tile-y0="215.14209"
       inkscape:tile-x0="173.74624"
       id="use18762"
       d="m 176.08491,851.6241 c 0.15183,3.92578 -3.87337,7.26835 -8.99058,7.46585 -5.11719,0.1975 -9.38856,-2.82488 -9.54039,-6.75066 -0.15184,-3.92589 3.87337,-7.26846 8.99056,-7.46596 5.1172,-0.19749 9.38857,2.82488 9.54041,6.75077 z"
       style="opacity:0.9962084;fill:#ceb677;fill-opacity:1;stroke:none" />
    <path
       inkscape:connector-curvature="0"
       inkscape:tile-y0="215.14209"
       inkscape:tile-x0="173.74624"
       id="use18764"
       d="m 103.74768,773.17686 c -3.863758,-1.49822 -5.336028,-6.98457 -3.28843,-12.25412 2.04761,-5.26956 6.8397,-8.32682 10.70346,-6.82861 3.86386,1.49826 5.33614,6.9846 3.28853,12.25416 -2.04761,5.26956 -6.8397,8.32683 -10.70356,6.82857 z"
       style="fill:#d2b981;fill-opacity:1;stroke:none" />
    <path
       inkscape:connector-curvature="0"
       inkscape:tile-y0="215.14209"
       inkscape:tile-x0="173.74624"
       id="use18766"
       d="m 241.60871,750.69948 c 3.31342,-2.78334 9.23581,-1.19503 13.22806,3.54762 3.99224,4.74264 4.54254,10.84363 1.22913,13.62698 -3.31351,2.78341 -9.23591,1.19509 -13.22816,-3.54755 -3.99225,-4.74264 -4.54255,-10.84364 -1.22903,-13.62705 z"
       style="fill:#d4b58c;fill-opacity:1;stroke:none" />
    <path
       inkscape:connector-curvature="0"
       inkscape:tile-y0="215.14209"
       inkscape:tile-x0="173.74624"
       id="use18768"
       d="m 166.17567,912.6297 c 0.17721,4.63501 -5.32229,8.60772 -12.28352,8.87332 -6.96122,0.26559 -12.74805,-3.27651 -12.92526,-7.91152 -0.17722,-4.63513 5.32228,-8.60784 12.28352,-8.87345 6.96122,-0.26559 12.74804,3.27651 12.92526,7.91165 z"
       style="fill:#d8ba98;fill-opacity:1;stroke:none" />
    <path
       inkscape:connector-curvature="0"
       inkscape:tile-y0="215.14209"
       inkscape:tile-x0="173.74624"
       id="use18770"
       d="m 123.4899,773.00286 c -3.00323,-0.7599 -4.83445,-3.75555 -4.09015,-6.691 0.7443,-2.93546 3.78226,-4.69909 6.7855,-3.93919 3.00331,0.75992 4.83453,3.75558 4.09022,6.69103 -0.7443,2.93546 -3.78226,4.69908 -6.78557,3.93916 z"
       style="opacity:0.99563509;fill:#9f8f2c;fill-opacity:1;stroke:none" />
    <path
       inkscape:connector-curvature="0"
       inkscape:tile-y0="215.14209"
       inkscape:tile-x0="173.74624"
       id="use18772"
       d="m 135.30186,761.37896 c -3.02107,-1.23477 -4.44384,-4.74153 -3.17783,-7.83258 1.26601,-3.09107 4.74136,-4.59589 7.76243,-3.36113 3.02117,1.23479 4.44394,4.74155 3.17793,7.83261 -1.26601,3.09106 -4.74136,4.59589 -7.76253,3.3611 z"
       style="fill:#a79431;fill-opacity:1;stroke:none" />
    <path
       inkscape:connector-curvature="0"
       inkscape:tile-y0="215.14209"
       inkscape:tile-x0="173.74624"
       id="use18774"
       d="m 147.41305,725.57883 c -1.88653,-2.90934 -0.88557,-6.90513 2.23571,-8.92487 3.12129,-2.01974 7.18091,-1.29857 9.06744,1.61078 1.88658,2.90941 0.88561,6.9052 -2.23567,8.92495 -3.12129,2.01973 -7.18091,1.29857 -9.06748,-1.61086 z"
       style="fill:#bb9e36;fill-opacity:1;stroke:none" />
    <path
       inkscape:connector-curvature="0"
       inkscape:tile-y0="215.14209"
       inkscape:tile-x0="173.74624"
       id="use18776"
       d="m 208.66248,722.1654 c 0.97062,-3.58901 5.02194,-5.61745 9.0489,-4.53065 4.02697,1.08678 6.5046,4.87726 5.53398,8.46626 -0.97066,3.58911 -5.02198,5.61754 -9.04894,4.53075 -4.02696,-1.08679 -6.50459,-4.87726 -5.53394,-8.46636 z"
       style="opacity:0.99499661;fill:#c5a93b;fill-opacity:1;stroke:none" />
    <path
       inkscape:connector-curvature="0"
       inkscape:tile-y0="215.14209"
       inkscape:tile-x0="173.74624"
       id="use18778"
       d="m 247.05489,792.24982 c 3.85418,-0.68056 7.6273,2.43386 8.42753,6.95626 0.80021,4.5224 -1.67551,8.7402 -5.52969,9.42076 -3.85429,0.68057 -7.62741,-2.43384 -8.42762,-6.95624 -0.80022,-4.5224 1.6755,-8.74022 5.52978,-9.42078 z"
       style="fill:#c5a348;fill-opacity:1;stroke:none" />
    <path
       inkscape:connector-curvature="0"
       inkscape:tile-y0="215.14209"
       inkscape:tile-x0="173.74624"
       id="use18780"
       d="m 206.5439,856.2996 c 2.26803,3.41853 0.69026,8.45163 -3.52405,11.24178 -4.21431,2.79015 -9.46926,2.28075 -11.73727,-1.13776 -2.26808,-3.41862 -0.69031,-8.45172 3.52399,-11.24187 4.21431,-2.79015 9.46925,-2.28076 11.73733,1.13785 z"
       style="fill:#caaa55;fill-opacity:1;stroke:none" />
    <path
       inkscape:connector-curvature="0"
       inkscape:tile-y0="215.14209"
       inkscape:tile-x0="173.74624"
       id="use18782"
       d="m 107.06653,826.03411 c -3.92348,1.96904 -9.163798,-0.53037 -11.704608,-5.5826 -2.5408,-5.05222 -1.41991,-10.74405 2.50357,-12.71308 3.923598,-1.96909 9.163918,0.53032 11.704718,5.58255 2.5408,5.05222 1.41991,10.74404 -2.50368,12.71313 z"
       style="fill:#caaa60;fill-opacity:1;stroke:none" />
    <path
       inkscape:connector-curvature="0"
       inkscape:tile-y0="215.14209"
       inkscape:tile-x0="173.74624"
       id="use18784"
       d="m 177.00211,715.39237 c -0.92344,-4.54985 3.31534,-9.24835 9.46759,-10.49439 6.15225,-1.24604 11.88821,1.4322 12.81164,5.98206 0.92346,4.54997 -3.31532,9.24847 -9.46756,10.49451 -6.15226,1.24607 -11.88821,-1.4322 -12.81167,-5.98218 z"
       style="opacity:0.99485204;fill:#ccb169;fill-opacity:1;stroke:none" />
    <path
       inkscape:connector-curvature="0"
       inkscape:tile-y0="215.14209"
       inkscape:tile-x0="173.74624"
       id="use18786"
       d="m 265.24303,821.41933 c 4.79037,0.85069 7.69539,7.03793 6.48856,13.81961 -1.20685,6.7817 -6.06854,11.58969 -10.85891,10.73899 -4.79049,-0.85072 -7.6955,-7.03796 -6.48867,-13.81965 1.20685,-6.78167 6.06853,-11.58967 10.85902,-10.73895 z"
       style="fill:#d1b67c;fill-opacity:1;stroke:none" />
    <path
       inkscape:connector-curvature="0"
       inkscape:tile-y0="215.14209"
       inkscape:tile-x0="173.74624"
       id="use18788"
       d="m 92.807302,840.28207 c -4.76064,2.20494 -11.272843,-1.7236 -14.545441,-8.77466 -3.272598,-7.05106 -2.0663,-14.55449 2.694337,-16.75943 4.760769,-2.205 11.272974,1.72354 14.545574,8.7746 3.27259,7.05105 2.0663,14.55449 -2.69447,16.75949 z"
       style="opacity:0.99849004;fill:#d3b685;fill-opacity:1;stroke:none" />
    <path
       inkscape:connector-curvature="0"
       inkscape:tile-y0="215.14209"
       inkscape:tile-x0="173.74624"
       id="use18790"
       d="m 164.14244,725.16702 c -0.69932,-3.40085 1.40563,-6.70605 4.70159,-7.38241 3.29594,-0.67634 6.53474,1.53228 7.23408,4.93312 0.69935,3.40095 -1.40561,6.70615 -4.70157,7.3825 -3.29595,0.67635 -6.53474,-1.53229 -7.2341,-4.93321 z"
       style="opacity:0.99190853;fill:#908425;fill-opacity:1;stroke:none" />
    <path
       inkscape:connector-curvature="0"
       inkscape:tile-y0="215.14209"
       inkscape:tile-x0="173.74624"
       id="use18792"
       d="m 200.57211,702.3949 c 0.36411,-3.65708 3.66555,-6.32302 7.37397,-5.95456 3.70841,0.36845 6.4195,3.63179 6.05537,7.28887 -0.36412,3.65719 -3.66556,6.32314 -7.37398,5.95467 -3.70841,-0.36845 -6.41949,-3.6318 -6.05536,-7.28898 z"
       style="fill:#9e8d2a;fill-opacity:1;stroke:none" />
    <path
       inkscape:connector-curvature="0"
       inkscape:tile-y0="215.14209"
       inkscape:tile-x0="173.74624"
       id="use18794"
       d="m 234.18211,728.69577 c 2.33649,-3.15183 6.94027,-3.70235 10.28283,-1.22963 3.34258,2.47272 4.15815,7.03231 1.82165,10.18413 -2.33657,3.15193 -6.94035,3.70245 -10.28292,1.22974 -3.34256,-2.47273 -4.15813,-7.03232 -1.82156,-10.18424 z"
       style="opacity:0.99502109;fill:#a1902d;fill-opacity:1;stroke:none" />
    <path
       inkscape:connector-curvature="0"
       inkscape:tile-y0="215.14209"
       inkscape:tile-x0="173.74624"
       id="use18796"
       d="m 263.11874,774.42818 c 4.09119,-0.78972 8.11838,2.2438 8.99498,6.7756 0.87661,4.5318 -1.72933,8.84572 -5.82052,9.63545 -4.0913,0.78975 -8.11848,-2.24378 -8.99509,-6.77558 -0.8766,-4.5318 1.72932,-8.84572 5.82063,-9.63547 z"
       style="fill:#b29631;fill-opacity:1;stroke:none" />
    <path
       inkscape:connector-curvature="0"
       inkscape:tile-y0="215.14209"
       inkscape:tile-x0="173.74624"
       id="use18798"
       d="m 252.39052,856.44746 c 3.28311,2.86362 3.243,8.27592 -0.0896,12.08872 -3.3326,3.81282 -8.69567,4.58227 -11.97878,1.71865 -3.28321,-2.8637 -3.2431,-8.276 0.0895,-12.08881 3.3326,-3.81282 8.69567,-4.58227 11.97888,-1.71856 z"
       style="fill:#bba137;fill-opacity:1;stroke:none" />
    <path
       inkscape:connector-curvature="0"
       inkscape:tile-y0="215.14209"
       inkscape:tile-x0="173.74624"
       id="use18800"
       d="m 145.69052,889.80159 c -2.06936,4.08363 -7.78487,5.35211 -12.76599,2.83323 -4.98113,-2.51888 -7.34157,-7.87124 -5.27222,-11.95488 2.0694,-4.08375 7.78492,-5.35222 12.76604,-2.83335 4.98113,2.51888 7.34157,7.87125 5.27217,11.955 z"
       style="opacity:0.99716354;fill:#c2a23b;fill-opacity:1;stroke:none" />
    <path
       inkscape:connector-curvature="0"
       inkscape:tile-y0="215.14209"
       inkscape:tile-x0="173.74624"
       id="use18802"
       d="m 123.63637,738.06065 c -3.53551,-3.40144 -2.88239,-9.80912 1.45878,-14.31197 4.34117,-4.50285 10.72646,-5.39571 14.26197,-1.99426 3.53561,3.40153 2.88249,9.80921 -1.45868,14.31206 -4.34119,4.50286 -10.72647,5.39572 -14.26207,1.99417 z"
       style="opacity:0.99933723;fill:#c9a74a;fill-opacity:1;stroke:none" />
    <path
       inkscape:connector-curvature="0"
       inkscape:tile-y0="215.14209"
       inkscape:tile-x0="173.74624"
       id="use18804"
       d="m 280.47046,754.13881 c 4.28588,-2.88747 10.89193,-0.58961 14.75507,5.13246 3.86314,5.72206 3.52044,12.70145 -0.76544,15.58893 -4.28599,2.88757 -10.89205,0.58971 -14.7552,-5.13236 -3.86313,-5.72207 -3.52043,-12.70146 0.76557,-15.58903 z"
       style="fill:#c9a755;fill-opacity:1;stroke:none" />
    <path
       inkscape:connector-curvature="0"
       inkscape:tile-y0="215.14209"
       inkscape:tile-x0="173.74624"
       id="use18806"
       d="m 203.52481,913.27523 c 1.45489,5.30554 -3.39146,11.25544 -10.82463,13.2895 -7.43318,2.03406 -14.63834,-0.61799 -16.09322,-5.92352 -1.45491,-5.30567 3.39143,-11.25558 10.8246,-13.28963 7.43319,-2.03406 14.63834,0.61799 16.09325,5.92365 z"
       style="fill:#cca360;fill-opacity:1;stroke:none" />
    <path
       inkscape:connector-curvature="0"
       inkscape:tile-y0="215.14209"
       inkscape:tile-x0="173.74624"
       id="use18808"
       d="m 94.256892,736.54132 c -4.54008,-3.64381 -3.88306,-11.99079 1.46753,-18.64353 5.350578,-6.65275 13.368508,-9.09194 17.908598,-5.44812 4.5402,3.64392 3.88318,11.99089 -1.46741,18.64364 -5.35058,6.65273 -13.368508,9.09193 -17.908718,5.44801 z"
       style="opacity:0.99777419;fill:#cfaf6c;fill-opacity:1;stroke:none" />
    <path
       inkscape:connector-curvature="0"
       inkscape:tile-y0="215.14209"
       inkscape:tile-x0="173.74624"
       id="use18810"
       d="m 240.68092,772.60378 c 3.79023,-0.99366 7.63418,1.13692 8.58569,4.75882 0.95153,3.62191 -1.3497,7.36354 -5.13994,8.35721 -3.79033,0.99369 -7.63428,-1.1369 -8.58581,-4.75879 -0.95151,-3.62191 1.34971,-7.36355 5.14006,-8.35724 z"
       style="opacity:0.99219097;fill:#7c771d;fill-opacity:1;stroke:none" />
    <path
       inkscape:connector-curvature="0"
       inkscape:tile-y0="215.14209"
       inkscape:tile-x0="173.74624"
       id="use18812"
       d="m 277.28998,796.39587 c 4.15805,0.15113 7.40611,3.64267 7.25474,7.79861 -0.15136,4.15592 -3.64483,7.40245 -7.80288,7.25132 -4.15817,-0.15114 -7.40623,-3.64268 -7.25487,-7.79862 0.15137,-4.15592 3.64484,-7.40245 7.80301,-7.25131 z"
       style="opacity:0.99927775;fill:#8b8321;fill-opacity:1;stroke:none" />
    <path
       inkscape:connector-curvature="0"
       inkscape:tile-y0="215.14209"
       inkscape:tile-x0="173.74624"
       id="use18814"
       d="m 240.21621,833.21325 c 3.58812,2.49602 4.37421,7.56446 1.75579,11.32069 -2.61843,3.75623 -7.64981,4.77782 -11.23793,2.28181 -3.58823,-2.49609 -4.37433,-7.56451 -1.7559,-11.32075 2.61843,-3.75623 7.64981,-4.77783 11.23804,-2.28175 z"
       style="opacity:0.99272551;fill:#948425;fill-opacity:1;stroke:none" />
    <path
       inkscape:connector-curvature="0"
       inkscape:tile-y0="215.14209"
       inkscape:tile-x0="173.74624"
       id="use18816"
       d="m 191.47126,884.91567 c 1.18796,4.50271 -1.8546,9.20746 -6.79577,10.50839 -4.94118,1.30092 -9.90981,-1.29464 -11.09776,-5.79733 -1.188,-4.50283 1.85456,-9.20758 6.79574,-10.50851 4.94117,-1.30093 9.90979,1.29463 11.09779,5.79745 z"
       style="fill:#9d8b28;fill-opacity:1;stroke:none" />
    <path
       inkscape:connector-curvature="0"
       inkscape:tile-y0="215.14209"
       inkscape:tile-x0="173.74624"
       id="use18818"
       d="m 113.41362,850.90949 c -3.83783,3.01531 -9.76082,1.88833 -13.22938,-2.51719 -3.468558,-4.40552 -3.169198,-10.42127 0.66864,-13.43656 3.83794,-3.01539 9.76092,-1.88842 13.22948,2.5171 3.46856,4.40552 3.16921,10.42127 -0.66874,13.43665 z"
       style="fill:#aa972c;fill-opacity:1;stroke:none" />
    <path
       inkscape:connector-curvature="0"
       inkscape:tile-y0="215.14209"
       inkscape:tile-x0="173.74624"
       id="use18820"
       d="m 89.458522,759.88973 c -4.783466,-2.04767 -6.662919,-8.36601 -4.197877,-14.11247 2.465042,-5.74644 8.341097,-8.74488 13.124557,-6.6972 4.783598,2.04772 6.663048,8.36607 4.198018,14.11252 -2.46505,5.74644 -8.341108,8.74488 -13.124698,6.69715 z"
       style="opacity:0.99858829;fill:#b29a30;fill-opacity:1;stroke:none" />
    <path
       inkscape:connector-curvature="0"
       inkscape:tile-y0="215.14209"
       inkscape:tile-x0="173.74624"
       id="use18822"
       d="m 250.99751,706.65111 c 3.2809,-4.50193 10.53657,-4.80898 16.20602,-0.68584 5.66946,4.12315 7.60574,11.11514 4.32483,15.61705 -3.281,4.50205 -10.53666,4.80911 -16.20611,0.68596 -5.66945,-4.12315 -7.60574,-11.11513 -4.32474,-15.61717 z"
       style="fill:#c2a735;fill-opacity:1;stroke:none" />
    <path
       inkscape:connector-curvature="0"
       inkscape:tile-y0="215.14209"
       inkscape:tile-x0="173.74624"
       id="use18824"
       d="m 250.62078,885.17975 c 3.60939,4.58636 1.62482,12.16076 -4.43266,16.91792 -6.05747,4.75716 -13.89398,4.89561 -17.50335,0.30924 -3.60948,-4.5865 -1.62492,-12.16089 4.43256,-16.91805 6.05748,-4.75716 13.89398,-4.89561 17.50345,-0.30911 z"
       style="fill:#c8a83c;fill-opacity:1;stroke:none" />
    <path
       inkscape:connector-curvature="0"
       inkscape:tile-y0="215.14209"
       inkscape:tile-x0="173.74624"
       id="use18826"
       d="m 81.880049,812.58253 c -6.059846,1.61355 -12.779517,-3.85143 -15.00883,-12.20637 -2.229313,-8.35497 0.875944,-16.436 6.93579,-18.04954 6.060015,-1.61358 12.779685,3.85137 15.008999,12.20633 2.229314,8.35496 -0.875945,16.43598 -6.935959,18.04958 z"
       style="opacity:0.9906855;fill:#c9a548;fill-opacity:1;stroke:none" />
    <path
       inkscape:connector-curvature="0"
       inkscape:tile-y0="215.14209"
       inkscape:tile-x0="173.74624"
       id="use18828"
       d="m 284.53713,715.76189 c 3.62354,-5.50548 13.02693,-5.72175 21.00311,-0.48303 7.97618,5.23871 11.50467,13.94858 7.88113,19.45406 -3.62363,5.50565 -13.02703,5.72191 -21.00321,0.48319 -7.97618,-5.23872 -11.50467,-13.94859 -7.88103,-19.45422 z"
       style="fill:#cdaa5a;fill-opacity:1;stroke:none" />
    <path
       inkscape:connector-curvature="0"
       inkscape:tile-y0="215.14209"
       inkscape:tile-x0="173.74624"
       id="use18830"
       d="m 170.79154,876.65696 c 0.013,4.37712 -3.3341,7.93539 -7.47593,7.94764 -4.14182,0.0123 -7.50993,-3.52616 -7.52291,-7.90328 -0.013,-4.37724 3.33411,-7.93551 7.47594,-7.94775 4.14183,-0.0123 7.50994,3.52616 7.5229,7.90339 z"
       style="fill:#696c16;fill-opacity:1;stroke:none" />
    <path
       inkscape:connector-curvature="0"
       inkscape:tile-y0="215.14209"
       inkscape:tile-x0="173.74624"
       id="use18832"
       d="m 154.22353,856.94833 c -1.21864,4.46388 -5.78964,7.10643 -10.20964,5.9023 -4.42001,-1.20414 -7.01523,-5.79896 -5.7966,-10.26284 1.21866,-4.46401 5.78966,-7.10654 10.20967,-5.90241 4.42002,1.20413 7.01523,5.79895 5.79657,10.26295 z"
       style="fill:#78771a;fill-opacity:1;stroke:none" />
    <path
       inkscape:connector-curvature="0"
       inkscape:tile-y0="215.14209"
       inkscape:tile-x0="173.74624"
       id="use18834"
       d="m 130.95525,856.75853 c -3.82494,3.09886 -9.52758,2.40612 -12.73724,-1.5473 -3.20965,-3.95341 -2.71086,-9.6704 1.11408,-12.76927 3.82504,-3.09894 9.52768,-2.4062 12.73734,1.54721 3.20965,3.95343 2.71087,9.67042 -1.11418,12.76936 z"
       style="opacity:0.99346601;fill:#80721c;fill-opacity:1;stroke:none" />
    <path
       inkscape:connector-curvature="0"
       inkscape:tile-y0="215.14209"
       inkscape:tile-x0="173.74624"
       id="use18836"
       d="m 84.794191,783.10789 c -5.232382,-0.50279 -9.032543,-5.49543 -8.487909,-11.15139 0.544634,-5.65596 5.227819,-9.8334 10.460201,-9.33062 5.232529,0.50281 9.032689,5.49545 8.488059,11.15142 -0.54464,5.65595 -5.22782,9.8334 -10.460351,9.33059 z"
       style="opacity:0.99418664;fill:#8f8622;fill-opacity:1;stroke:none" />
    <path
       inkscape:connector-curvature="0"
       inkscape:tile-y0="215.14209"
       inkscape:tile-x0="173.74624"
       id="use18838"
       d="m 133.23787,713.38285 c -3.16561,-4.55799 -1.54038,-11.15791 3.63005,-14.74137 5.17042,-3.58346 11.92808,-2.79343 15.09368,1.76457 3.1657,4.55811 1.54047,11.15803 -3.62996,14.74148 -5.17042,3.58345 -11.92809,2.79343 -15.09377,-1.76468 z"
       style="opacity:0.99244546;fill:#978a23;fill-opacity:1;stroke:none" />
    <path
       inkscape:connector-curvature="0"
       inkscape:tile-y0="215.14209"
       inkscape:tile-x0="173.74624"
       id="use18840"
       d="m 259.17627,731.10912 c 3.7325,-4.58152 11.16722,-4.71118 16.60595,-0.28957 5.43873,4.42161 6.82189,11.72007 3.08939,16.30159 -3.73262,4.58166 -11.16734,4.71132 -16.60608,0.2897 -5.43872,-4.4216 -6.82187,-11.72006 -3.08926,-16.30172 z"
       style="fill:#a49129;fill-opacity:1;stroke:none" />
    <path
       inkscape:connector-curvature="0"
       inkscape:tile-y0="215.14209"
       inkscape:tile-x0="173.74624"
       id="use18842"
       d="m 282.7924,871.15781 c 4.67513,3.99303 4.43261,11.94148 -0.54171,17.75337 -4.97432,5.81188 -12.79673,7.28633 -17.47188,3.29329 -4.67527,-3.99316 -4.43275,-11.9416 0.54158,-17.75349 4.97432,-5.81188 12.79673,-7.28633 17.47201,-3.29317 z"
       style="opacity:0.99823369;fill:#ab962d;fill-opacity:1;stroke:none" />
    <path
       inkscape:connector-curvature="0"
       inkscape:tile-y0="215.14209"
       inkscape:tile-x0="173.74624"
       id="use18844"
       d="m 96.012592,894.61094 c -5.02993,4.35994 -13.707827,2.59819 -19.382672,-3.93501 -5.674847,-6.5332 -6.197644,-15.36382 -1.16772,-19.72376 5.030066,-4.36009 13.707962,-2.59834 19.382812,3.93487 5.674838,6.53321 6.197638,15.36383 1.16758,19.7239 z"
       style="opacity:0.99260565;fill:#b99b30;fill-opacity:1;stroke:none" />
    <path
       inkscape:connector-curvature="0"
       inkscape:tile-y0="215.14209"
       inkscape:tile-x0="173.74624"
       id="use18846"
       d="m 169.15329,685.07702 c -1.28657,-6.93603 5.3359,-13.97769 14.79175,-15.728 9.45585,-1.75031 18.16427,2.45354 19.45084,9.38957 1.28659,6.93622 -5.33587,13.97788 -14.79172,15.7282 -9.45585,1.75031 -18.16426,-2.45354 -19.45087,-9.38977 z"
       style="fill:#c39a34;fill-opacity:1;stroke:none" />
    <path
       inkscape:connector-curvature="0"
       inkscape:tile-y0="215.14209"
       inkscape:tile-x0="173.74624"
       id="use18848"
       d="m 273.46415,912.3578 c 5.02197,5.51827 2.70246,15.79544 -5.18082,22.95476 -7.88327,7.15931 -18.345,8.48962 -23.36698,2.97135 -5.02213,-5.51842 -2.70262,-15.7956 5.18066,-22.95491 7.88328,-7.15931 18.34502,-8.48962 23.36714,-2.9712 z"
       style="opacity:0.99947504;fill:#caa845;fill-opacity:1;stroke:none" />
    <path
       inkscape:connector-curvature="0"
       inkscape:tile-y0="215.14209"
       inkscape:tile-x0="173.74624"
       id="use18850"
       d="m 113.83374,754.69341 c -4.50691,-1.98168 -6.66014,-6.99322 -4.80937,-11.19363 1.85077,-4.2004 7.00468,-5.99901 11.51159,-4.01733 4.50704,1.98174 6.66028,6.99328 4.8095,11.19368 -1.85077,4.2004 -7.00468,5.99901 -11.51172,4.01728 z"
       style="fill:#525510;fill-opacity:1;stroke:none" />
    <path
       inkscape:connector-curvature="0"
       inkscape:tile-y0="215.14209"
       inkscape:tile-x0="173.74624"
       id="use18852"
       d="m 112.16829,712.96185 c -3.77912,-3.64586 -3.95736,-9.58598 -0.39809,-13.26764 3.55928,-3.68166 9.5082,-3.71068 13.28732,-0.0648 3.77923,3.64595 3.95746,9.58607 0.39819,13.26773 -3.55927,3.68167 -9.50819,3.71067 -13.28742,0.0647 z"
       style="fill:#626313;fill-opacity:1;stroke:none" />
    <path
       inkscape:connector-curvature="0"
       inkscape:tile-y0="215.14209"
       inkscape:tile-x0="173.74624"
       id="use18854"
       d="m 155.09686,701.99538 c -2.45443,-4.8907 -0.38647,-10.88749 4.61895,-13.39425 5.00541,-2.50676 11.05278,-0.5742 13.50721,4.31649 2.4545,4.89082 0.38653,10.88762 -4.61888,13.39438 -5.00542,2.50675 -11.05278,0.57419 -13.50728,-4.31662 z"
       style="opacity:0.99263742;fill:#706c17;fill-opacity:1;stroke:none" />
    <path
       inkscape:connector-curvature="0"
       inkscape:tile-y0="215.14209"
       inkscape:tile-x0="173.74624"
       id="use18856"
       d="m 222.26763,703.26782 c 2.00457,-5.44693 8.35884,-8.12569 14.19266,-5.98321 5.83383,2.1425 8.93803,8.29492 6.93344,13.74184 -2.00464,5.44707 -8.3589,8.12584 -14.19272,5.98335 -5.83384,-2.14249 -8.93802,-8.29491 -6.93338,-13.74198 z"
       style="fill:#797119;fill-opacity:1;stroke:none" />
    <path
       inkscape:connector-curvature="0"
       inkscape:tile-y0="215.14209"
       inkscape:tile-x0="173.74624"
       id="use18858"
       d="m 311.5451,786.03645 c 6.19319,-0.40292 11.57961,4.88225 12.03092,11.8048 0.45132,6.92255 -4.20336,12.861 -10.39655,13.26392 -6.19336,0.40294 -11.57977,-4.88223 -12.0311,-11.80478 -0.45131,-6.92255 4.20337,-12.861 10.39673,-13.26394 z"
       style="opacity:0.99930576;fill:#8b7a1f;fill-opacity:1;stroke:none" />
    <path
       inkscape:connector-curvature="0"
       inkscape:tile-y0="215.14209"
       inkscape:tile-x0="173.74624"
       id="use18860"
       d="m 232.03537,919.98148 c 2.60642,6.01537 -1.00088,13.36514 -8.05716,16.4162 -7.05628,3.05105 -14.88941,0.648 -17.49582,-5.36737 -2.6065,-6.01552 1.0008,-13.36529 8.05708,-16.41635 7.05628,-3.05106 14.88941,-0.648 17.4959,5.36752 z"
       style="fill:#948a21;fill-opacity:1;stroke:none" />
    <path
       inkscape:connector-curvature="0"
       inkscape:tile-y0="215.14209"
       inkscape:tile-x0="173.74624"
       id="use18862"
       d="m 65.165633,836.11528 c -6.714448,2.16292 -14.30763,-2.74432 -16.959874,-10.96066 -2.652243,-8.21633 0.640822,-16.63033 7.355271,-18.79323 6.714635,-2.16298 14.307817,2.74426 16.960061,10.96059 2.652243,8.21634 -0.640822,16.63034 -7.355458,18.7933 z"
       style="fill:#9c8424;fill-opacity:1;stroke:none" />
    <path
       inkscape:connector-curvature="0"
       inkscape:tile-y0="215.14209"
       inkscape:tile-x0="173.74624"
       id="use18864"
       d="m 206.20228,675.7942 c 0.60579,-7.33055 8.74202,-12.64263 18.17283,-11.86489 9.4308,0.77774 16.58484,7.35079 15.97904,14.68133 -0.60582,7.33074 -8.74205,12.64282 -18.17285,11.86509 -9.4308,-0.77774 -16.58484,-7.35079 -15.97902,-14.68153 z"
       style="fill:#ad8b29;fill-opacity:1;stroke:none" />
    <path
       inkscape:connector-curvature="0"
       inkscape:tile-y0="215.14209"
       inkscape:tile-x0="173.74624"
       id="use18866"
       d="m 337.28705,859.34383 c 7.20471,3.00065 9.76765,13.28644 5.72448,22.97402 -4.04317,9.68759 -13.16133,15.10839 -20.36605,12.10774 -7.2049,-3.00072 -9.76785,-13.28652 -5.72467,-22.97411 4.04317,-9.68758 13.16134,-15.10839 20.36624,-12.10765 z"
       style="opacity:0.99051197;fill:#b28c2b;fill-opacity:1;stroke:none" />
    <path
       inkscape:connector-curvature="0"
       inkscape:tile-y0="215.14209"
       inkscape:tile-x0="173.74624"
       id="use18868"
       d="m 63.268762,874.70267 c -7.635437,3.54338 -17.870986,-2.28409 -22.861779,-13.01606 -4.990794,-10.73197 -2.846881,-22.30436 4.788556,-25.84773 7.635652,-3.54348 17.8712,2.284 22.861994,13.01596 4.990793,10.73197 2.84688,22.30437 -4.788771,25.84783 z"
       style="fill:#c19e31;fill-opacity:1;stroke:none" />
    <path
       inkscape:connector-curvature="0"
       inkscape:tile-y0="215.14209"
       inkscape:tile-x0="173.74624"
       id="use18870"
       d="m 319.56654,751.3616 c 5.2033,-1.64285 10.65037,0.90968 12.16638,5.70126 1.51602,4.79157 -1.47311,10.00768 -6.67641,11.65052 -5.20346,1.64289 -10.65052,-0.90964 -12.16653,-5.70121 -1.51602,-4.79157 1.47312,-10.00768 6.67656,-11.65057 z"
       style="opacity:0.99146573;fill:#41460c;fill-opacity:1;stroke:none" />
    <path
       inkscape:connector-curvature="0"
       inkscape:tile-y0="215.14209"
       inkscape:tile-x0="173.74624"
       id="use18872"
       d="m 290.72672,815.72619 c 5.88,0.52289 10.23847,5.52738 9.73494,11.17788 -0.50354,5.65049 -5.67841,9.8072 -11.5584,9.2843 -5.88016,-0.52291 -10.23864,-5.5274 -9.73511,-11.1779 0.50354,-5.65048 5.67841,-9.8072 11.55857,-9.28428 z"
       style="fill:#52500e;fill-opacity:1;stroke:none" />
    <path
       inkscape:connector-curvature="0"
       inkscape:tile-y0="215.14209"
       inkscape:tile-x0="173.74624"
       id="use18874"
       d="m 307.59917,844.87256 c 5.57047,2.59635 7.96099,9.25122 5.3394,14.86408 -2.62159,5.61287 -9.26255,8.05823 -14.833,5.46187 -5.57063,-2.59642 -7.96116,-9.25128 -5.33956,-14.86416 2.6216,-5.61287 9.26255,-8.05822 14.83316,-5.46179 z"
       style="opacity:0.99446238;fill:#585a10;fill-opacity:1;stroke:none" />
    <path
       inkscape:connector-curvature="0"
       inkscape:tile-y0="215.14209"
       inkscape:tile-x0="173.74624"
       id="use18876"
       d="m 202.50393,954.2966 c 1.7264,6.32648 -2.28866,12.92958 -8.96791,14.74842 -6.67925,1.81893 -13.49334,-1.83526 -15.21974,-8.16175 -1.72645,-6.32661 2.28861,-12.9297 8.96786,-14.74858 6.67925,-1.81886 13.49335,1.83527 15.21979,8.16191 z"
       style="fill:#6c6314;fill-opacity:1;stroke:none" />
    <path
       inkscape:connector-curvature="0"
       inkscape:tile-y0="215.14209"
       inkscape:tile-x0="173.74624"
       id="use18878"
       d="m 122.61542,925.36028 c -4.11708,5.62135 -12.48917,6.49876 -18.69963,1.95973 -6.210458,-4.53904 -7.907468,-12.77564 -3.79039,-18.397 4.11718,-5.62152 12.48928,-6.49893 18.69975,-1.95989 6.21046,4.53903 7.90746,12.77563 3.79027,18.39716 z"
       style="opacity:0.99882944;fill:#797017;fill-opacity:1;stroke:none" />
    <path
       inkscape:connector-curvature="0"
       inkscape:tile-y0="215.14209"
       inkscape:tile-x0="173.74624"
       id="use18880"
       d="m 64.513205,750.96166 c -6.716239,-3.07542 -9.277208,-11.85275 -5.720082,-19.60475 3.557126,-7.752 11.885306,-11.54308 18.601546,-8.46767 6.716427,3.0755 9.277397,11.85282 5.72027,19.60482 -3.557126,7.752 -11.885308,11.5431 -18.601734,8.4676 z"
       style="fill:#83731b;fill-opacity:1;stroke:none" />
    <path
       inkscape:connector-curvature="0"
       inkscape:tile-y0="215.14209"
       inkscape:tile-x0="173.74624"
       id="use18882"
       d="m 243.4251,677.32713 c 2.75436,-7.4162 12.25808,-10.73346 21.22721,-7.40931 8.96913,3.32417 14.00718,12.03093 11.25282,19.44713 -2.75444,7.4164 -12.25817,10.73366 -21.22729,7.4095 -8.96914,-3.32417 -14.00717,-12.03092 -11.25274,-19.44732 z"
       style="opacity:0.99356887;fill:#8d7b1e;fill-opacity:1;stroke:none" />
    <path
       inkscape:connector-curvature="0"
       inkscape:tile-y0="215.14209"
       inkscape:tile-x0="173.74624"
       id="use18884"
       d="m 313.91457,907.13323 c 6.17318,5.60998 5.41407,16.48659 -1.69555,24.29363 -7.10962,7.80703 -17.87742,9.58808 -24.0506,3.97808 -6.17335,-5.61014 -5.41423,-16.48673 1.69539,-24.29377 7.10962,-7.80704 17.87741,-9.58808 24.05076,-3.97794 z"
       style="opacity:0.99495161;fill:#967d20;fill-opacity:1;stroke:none" />
    <path
       inkscape:connector-curvature="0"
       inkscape:tile-y0="215.14209"
       inkscape:tile-x0="173.74624"
       id="use18886"
       d="m 35.124095,832.45565 c -8.460247,3.11842 -18.665895,-3.41582 -22.794991,-14.59467 -4.129096,-11.17884 -0.618003,-22.76901 7.842244,-25.88742 8.460484,-3.1185 18.666131,3.41573 22.795228,14.59458 4.129095,11.17885 0.618002,22.76901 -7.842481,25.88751 z"
       style="opacity:0.99663116;fill:#a48324;fill-opacity:1;stroke:none" />
    <path
       inkscape:connector-curvature="0"
       inkscape:tile-y0="215.14209"
       inkscape:tile-x0="173.74624"
       id="use18888"
       d="m 317.44478,697.17207 c 5.61963,-7.7397 18.87524,-7.71026 29.60728,0.0658 10.73203,7.77605 14.87642,20.354 9.25678,28.0937 -5.61979,7.73992 -18.8754,7.71046 -29.60744,-0.0656 -10.73203,-7.77605 -14.87641,-20.35401 -9.25662,-28.09392 z"
       style="fill:#ac8927;fill-opacity:1;stroke:none" />
    <path
       inkscape:connector-curvature="0"
       inkscape:tile-y0="215.14209"
       inkscape:tile-x0="173.74624"
       id="use18890"
       d="m 119.83453,880.24313 c -4.03253,4.65352 -10.73192,5.45953 -14.96355,1.80026 -4.23164,-3.65927 -4.39305,-10.39811 -0.36053,-15.05162 4.03263,-4.65366 10.73202,-5.45967 14.96366,-1.8004 4.23163,3.65927 4.39304,10.39811 0.36042,15.05176 z"
       style="opacity:0.99729572;fill:#272b07;fill-opacity:1;stroke:none" />
    <path
       inkscape:connector-curvature="0"
       inkscape:tile-y0="215.14209"
       inkscape:tile-x0="173.74624"
       id="use18892"
       d="m 89.667652,859.51369 c -5.60977,3.46646 -12.827158,1.96508 -16.120511,-3.35345 -3.293354,-5.31852 -1.415521,-12.44013 4.194252,-15.90658 5.609931,-3.46655 12.827319,-1.96516 16.120669,3.35336 3.29336,5.31853 1.41552,12.44013 -4.19441,15.90667 z"
       style="fill:#363708;fill-opacity:1;stroke:none" />
    <path
       inkscape:connector-curvature="0"
       inkscape:tile-y0="215.14209"
       inkscape:tile-x0="173.74624"
       id="use18894"
       d="m 53.27545,787.91978 c -7.049019,0.52131 -13.182882,-4.7169 -13.700388,-11.69988 -0.517505,-6.983 4.777323,-13.06641 11.826341,-13.58772 7.049215,-0.52132 13.18308,4.71689 13.700585,11.69988 0.517504,6.98299 -4.777323,13.0664 -11.826538,13.58772 z"
       style="opacity:0.99972462;fill:#45480b;fill-opacity:1;stroke:none" />
    <path
       inkscape:connector-curvature="0"
       inkscape:tile-y0="215.14209"
       inkscape:tile-x0="173.74624"
       id="use18896"
       d="m 80.47607,705.70861 c -5.659507,-4.89771 -6.122527,-13.62462 -1.034173,-19.49214 5.088354,-5.86753 13.801185,-6.65371 19.460695,-1.756 5.659668,4.89785 6.122678,13.62477 1.03433,19.4923 -5.08835,5.86752 -13.801187,6.65369 -19.460852,1.75584 z"
       style="opacity:0.99416348;fill:#55540e;fill-opacity:1;stroke:none" />
    <path
       inkscape:connector-curvature="0"
       inkscape:tile-y0="215.14209"
       inkscape:tile-x0="173.74624"
       id="use18898"
       d="m 283.07304,677.46493 c 3.05082,-7.22055 11.89812,-10.38637 19.76105,-7.07107 7.86294,3.3153 11.7639,11.85627 8.71308,19.07682 -3.05091,7.22076 -11.89822,10.38659 -19.76115,7.07129 -7.86293,-3.31531 -11.76389,-11.85629 -8.71298,-19.07704 z"
       style="fill:#605e10;fill-opacity:1;stroke:none" />
    <path
       inkscape:connector-curvature="0"
       inkscape:tile-y0="215.14209"
       inkscape:tile-x0="173.74624"
       id="use18900"
       d="m 351.18043,809.75837 c 8.27425,0.54682 14.47633,8.62318 13.85276,18.03908 -0.62358,9.41592 -7.83668,16.60569 -16.11093,16.05887 -8.27447,-0.54685 -14.47656,-8.62319 -13.85299,-18.0391 0.62358,-9.41592 7.83668,-16.6057 16.11116,-16.05885 z"
       style="opacity:0.99416235;fill:#6c6914;fill-opacity:1;stroke:none" />
    <path
       inkscape:connector-curvature="0"
       inkscape:tile-y0="215.14209"
       inkscape:tile-x0="173.74624"
       id="use18902"
       d="m 161.41467,960.90352 c -0.76198,8.78136 -9.87475,15.16451 -20.35398,14.25706 -10.47922,-0.90737 -18.35656,-8.76173 -17.59456,-17.54317 0.76201,-8.78165 9.87478,-15.16478 20.35401,-14.25736 10.47922,0.90742 18.35656,8.76177 17.59453,17.54347 z"
       style="opacity:0.99020906;fill:#7a7416;fill-opacity:1;stroke:none" />
    <path
       inkscape:connector-curvature="0"
       inkscape:tile-y0="215.14209"
       inkscape:tile-x0="173.74624"
       id="use18904"
       d="m 28.939465,755.42764 c -8.981003,-2.90683 -13.320518,-14.33092 -9.692579,-25.51647 3.627939,-11.18556 13.849476,-17.89674 22.83048,-14.98991 8.981254,2.90691 13.320768,14.33099 9.692829,25.51655 -3.627939,11.18556 -13.849475,17.89675 -22.83073,14.98983 z"
       style="opacity:0.99862449;fill:#82751a;fill-opacity:1;stroke:none" />
    <path
       inkscape:connector-curvature="0"
       inkscape:tile-y0="215.14209"
       inkscape:tile-x0="173.74624"
       id="use18906"
       d="m 359.52571,742.75722 c 7.55644,-6.50546 20.57757,-3.78648 29.08359,6.07307 8.50601,9.85955 9.27578,23.12596 1.71935,29.63143 -7.55663,6.50565 -20.57778,3.78665 -29.08379,-6.07289 -8.50602,-9.85955 -9.27579,-23.12596 -1.71915,-29.63161 z"
       style="opacity:0.99550494;fill:#90791d;fill-opacity:1;stroke:none" />
    <path
       inkscape:connector-curvature="0"
       inkscape:tile-y0="215.14209"
       inkscape:tile-x0="173.74624"
       id="use18908"
       d="m 213.90866,1012.2949 c 0.69684,10.7097 -10.60329,20.1622 -25.23961,21.1126 -14.63631,0.9502 -27.06624,-6.9613 -27.76307,-17.6712 -0.69687,-10.71 10.60326,-20.16237 25.23958,-21.11277 14.63632,-0.9503 27.06624,6.96117 27.7631,17.67137 z"
       style="opacity:0.99239759;fill:#988621;fill-opacity:1;stroke:none" />
  </g>
</svg>
